<?xml version="1.0" encoding="utf-8"?>
<!-- Generator: Adobe Illustrator 28.0.0, SVG Export Plug-In . SVG Version: 6.00 Build 0)  -->
<svg version="1.1" id="图层_1" xmlns="http://www.w3.org/2000/svg" xmlns:xlink="http://www.w3.org/1999/xlink" x="0px" y="0px"
	 viewBox="0 0 200 200" style="enable-background:new 0 0 200 200;" xml:space="preserve">
<style type="text/css">
	.st0{fill:#D8D8D8;}
	.st1{fill:#C80000;}
</style>
<path class="st0" d="M10.3,117.2c0,41.9,34,75.9,75.9,75.9s75.9-34,75.9-75.9s-34-75.9-75.9-75.9S10.3,75.3,10.3,117.2z"/>
<path class="st1" d="M129.3,70.7c3.4,3.4,3.4,8.8,0,12.2L112.2,100l17.1,17.1c3.4,3.3,3.5,8.8,0.2,12.2c-3.3,3.4-8.8,3.5-12.2,0.2
	c-0.1-0.1-0.1-0.1-0.2-0.2L100,112.2l-17.1,17.1c-3.3,3.4-8.8,3.5-12.2,0.2c-3.4-3.3-3.5-8.8-0.2-12.2c0.1-0.1,0.1-0.1,0.2-0.2
	L87.8,100L70.7,82.9c-3.4-3.3-3.5-8.8-0.2-12.2c3.3-3.4,8.8-3.5,12.2-0.2c0.1,0.1,0.1,0.1,0.2,0.2L100,87.8l17.1-17.1
	C120.4,67.4,125.9,67.4,129.3,70.7z"/>
<path class="st1" d="M100,0c55.2,0,100,44.8,100,100s-44.8,100-100,100S0,155.2,0,100S44.8,0,100,0z M100,17.2
	c-45.7,0-82.8,37.1-82.8,82.8s37.1,82.8,82.8,82.8s82.8-37.1,82.8-82.8S145.7,17.2,100,17.2z"/>
</svg>
