<?xml version="1.0" standalone="no"?><!DOCTYPE svg PUBLIC "-//W3C//DTD SVG 1.1//EN" "http://www.w3.org/Graphics/SVG/1.1/DTD/svg11.dtd"><svg t="1741518275897" class="icon" viewBox="0 0 1024 1024" version="1.1" xmlns="http://www.w3.org/2000/svg" p-id="4366" xmlns:xlink="http://www.w3.org/1999/xlink" width="200" height="200"><path d="M370.758621 723.862069m-353.103449 0a353.103448 353.103448 0 1 0 706.206897 0 353.103448 353.103448 0 1 0-706.206897 0Z" fill="#D8D8D8" p-id="4367"></path><path d="M547.310345 35.310345c73.445517 0 123.586207 36.051862 123.586207 102.611862 0 2.065655-0.141241 4.096-0.406069 6.073379 0.264828 1.977379 0.406069 4.007724 0.406069 6.07338V388.413793h229.517241a105.931034 105.931034 0 0 1 105.931035 105.931035v194.206896c0 165.764414-134.373517 300.137931-300.137931 300.137931H123.586207a105.931034 105.931034 0 0 1-105.931035-105.931034V494.344828a105.931034 105.931034 0 0 1 105.931035-105.931035h35.310345v0.882759a44.137931 44.137931 0 1 1 0 86.510345V476.689655H123.586207a17.655172 17.655172 0 0 0-17.655173 17.655173v388.413793a17.655172 17.655172 0 0 0 17.655173 17.655172h582.62069c117.000828 0 211.862069-94.861241 211.862069-211.862069V494.344828a17.655172 17.655172 0 0 0-17.655173-17.655173H635.586207v-0.882758a44.137931 44.137931 0 0 1-52.965517-43.255173v-282.482758c0-2.065655 0.141241-4.096 0.423724-6.091035A43.661241 43.661241 0 0 1 582.62069 137.922207c0-11.881931-3.672276-14.689103-32.73269-14.689104-93.289931 0-150.016 34.816-176.763586 144.172138-41.065931 167.812414 4.555034 313.785379 139.546483 443.603862a44.137931 44.137931 0 0 1-61.192828 63.629242c-157.201655-151.181241-212.797793-329.145379-164.104828-528.207448C324.925793 92.919172 416.785655 35.310345 547.310345 35.310345z" fill="#464646" p-id="4368"></path></svg>