<?xml version="1.0" standalone="no"?><!DOCTYPE svg PUBLIC "-//W3C//DTD SVG 1.1//EN" "http://www.w3.org/Graphics/SVG/1.1/DTD/svg11.dtd"><svg t="1741518239679" class="icon" viewBox="0 0 1024 1024" version="1.1" xmlns="http://www.w3.org/2000/svg" p-id="2956" xmlns:xlink="http://www.w3.org/1999/xlink" width="200" height="200"><path d="M423.723773 600.275345m-388.413459 0a388.413458 388.413458 0 1 0 776.826917 0 388.413458 388.413458 0 1 0-776.826917 0Z" fill="#D8D8D8" p-id="2957"></path><path d="M511.999559 0c282.764998 0 511.999559 229.234561 511.999558 511.999559 0 120.055069-41.313068 230.452767-110.521284 317.757519l89.388061 89.388061a52.965472 52.965472 0 0 1-74.893177 74.893176l-88.469992-88.452337A509.91625 509.91625 0 0 1 511.999559 1023.999117C229.234561 1023.999117 0 794.764556 0 511.999559S229.234561 0 511.999559 0z m0 88.275786C277.98045 88.275786 88.275786 277.98045 88.275786 511.999559s189.704664 423.723773 423.723773 423.723772a422.381981 422.381981 0 0 0 298.584018-123.074101 53.495126 53.495126 0 0 1 9.816267-10.116405A422.099498 422.099498 0 0 0 935.723331 511.999559C935.723331 277.98045 746.018667 88.275786 511.999559 88.275786z" fill="#464646" p-id="2958"></path><path d="M227.062977 512.087834a35.310314 35.310314 0 0 1 37.676105 32.767972c3.601652 51.782576 23.763842 97.138675 61.21043 137.251192 36.722727 39.353345 74.999108 58.43857 116.135624 59.197742a35.310314 35.310314 0 0 1-1.324137 70.620629c-61.439947-1.16524-117.336175-29.025078-166.435167-81.619792-48.375131-51.835542-75.299245-112.410386-80.030827-180.541637a35.310314 35.310314 0 0 1 32.767972-37.676106z" fill="#6A6A6A" p-id="2959"></path></svg>