<?xml version="1.0" standalone="no"?><!DOCTYPE svg PUBLIC "-//W3C//DTD SVG 1.1//EN" "http://www.w3.org/Graphics/SVG/1.1/DTD/svg11.dtd"><svg t="1741518421379" class="icon" viewBox="0 0 1024 1024" version="1.1" xmlns="http://www.w3.org/2000/svg" p-id="948" xmlns:xlink="http://www.w3.org/1999/xlink" width="200" height="200"><path d="M630.4256 893.2864H391.68a175.0016 175.0016 0 0 1-151.1424-87.04l-119.3984-206.9504a175.104 175.104 0 0 1 0-174.592L240.64 217.9584a175.0016 175.0016 0 0 1 151.1424-87.04h238.7456a175.0016 175.0016 0 0 1 151.1424 87.04L901.12 424.96a175.104 175.104 0 0 1 0 174.592l-119.3984 206.7456a175.0016 175.0016 0 0 1-151.296 86.9888zM391.68 181.9136a123.648 123.648 0 0 0-106.8032 61.44L165.4784 450.56a123.7504 123.7504 0 0 0 0 123.392l119.3984 206.7456a123.648 123.648 0 0 0 106.8032 61.44h238.7456a123.648 123.648 0 0 0 106.8032-61.44l119.3984-206.7456a123.7504 123.7504 0 0 0 0-123.392L737.28 243.5584a123.648 123.648 0 0 0-106.8032-61.44z" fill="#252424" p-id="949"></path><path d="M511.0784 671.0784A159.0784 159.0784 0 1 1 670.1056 512a159.2832 159.2832 0 0 1-159.0272 159.0784z m0-266.9568A107.8784 107.8784 0 1 0 618.9056 512a107.9808 107.9808 0 0 0-107.8272-107.8784z" fill="#252424" p-id="950"></path></svg>