<?xml version="1.0" encoding="utf-8"?>
<!-- Generator: Adobe Illustrator 28.0.0, SVG Export Plug-In . SVG Version: 6.00 Build 0)  -->
<svg version="1.1" id="图层_1" xmlns="http://www.w3.org/2000/svg" xmlns:xlink="http://www.w3.org/1999/xlink" x="0px" y="0px"
	 viewBox="0 0 211.9 200" style="enable-background:new 0 0 211.9 200;" xml:space="preserve">
<style type="text/css">
	.st0{fill:#D8D8D8;}
	.st1{fill:#008300;}
	.st2{fill:none;stroke:#008300;stroke-width:14;stroke-miterlimit:10;}
</style>
<path class="st0" d="M131.8,176c14.7-13.8,23.9-33.5,23.9-55.3c0-41.9-34-75.9-75.9-75.9c-23.8,0-45.1,11-59,28.2
	c-2,2.5,0.2,14.1-0.3,29.6c-0.7,22.2-2.1,51.5,12.8,65.9C61.9,196.1,124.6,182.8,131.8,176z"/>
<path class="st1" d="M62.7,108c-3.8-3.8-3.8-10,0-13.8s10-3.8,13.8,0l20.7,20.7l51.1-51.1c3.8-3.8,10-3.8,13.8,0
	c3.8,3.8,3.8,10,0,13.8l-58,58c-3.6,3.6-9.5,3.8-13.3,0.4l-0.5-0.4L62.7,108L62.7,108z"/>
<path class="st2" d="M158,178.9H51.7c-14.4,0-26.1-11.7-26.1-26.1V46.5c0-14.4,11.7-26.1,26.1-26.1H158c14.4,0,26.1,11.7,26.1,26.1
	v106.3C184.1,167.2,172.4,178.9,158,178.9z"/>
<path class="st0" d="M22.4,106.4"/>
<path class="st0" d="M22.4,104.2"/>
<path class="st0" d="M22.4,104.2"/>
</svg>
