<?xml version="1.0" standalone="no"?><!DOCTYPE svg PUBLIC "-//W3C//DTD SVG 1.1//EN" "http://www.w3.org/Graphics/SVG/1.1/DTD/svg11.dtd"><svg t="1741429483979" class="icon" viewBox="0 0 1024 1024" version="1.1" xmlns="http://www.w3.org/2000/svg" p-id="968" xmlns:xlink="http://www.w3.org/1999/xlink" width="200" height="200"><path d="M441.37931 600.275862m-388.413793 0a388.413793 388.413793 0 1 0 776.827586 0 388.413793 388.413793 0 1 0-776.827586 0Z" fill="#D8D8D8" p-id="969"></path><path d="M512 0c282.765241 0 512 229.234759 512 512S794.765241 1024 512 1024 0 794.765241 0 512 229.234759 0 512 0z m0 88.275862C277.98069 88.275862 88.275862 277.98069 88.275862 512s189.704828 423.724138 423.724138 423.724138 423.724138-189.704828 423.724138-423.724138S746.01931 88.275862 512 88.275862z" fill="#464646" p-id="970"></path><path d="M660.126897 654.795034a44.137931 44.137931 0 0 1 56.849655 67.51338C653.594483 775.68 587.987862 803.310345 520.827586 803.310345c-67.160276 0-132.766897-27.630345-196.148965-81.001931a44.137931 44.137931 0 0 1 56.849655-67.51338c48.445793 40.783448 94.631724 60.239448 139.29931 60.239449 44.667586 0 90.853517-19.456 139.299311-60.239449z" fill="#6A6A6A" p-id="971"></path></svg>