<?xml version="1.0" encoding="utf-8"?>
<!-- Generator: Adobe Illustrator 28.0.0, SVG Export Plug-In . SVG Version: 6.00 Build 0)  -->
<svg version="1.1" id="图层_1" xmlns="http://www.w3.org/2000/svg" xmlns:xlink="http://www.w3.org/1999/xlink" x="0px" y="0px"
	 viewBox="0 0 200 200" style="enable-background:new 0 0 200 200;" xml:space="preserve">
<style type="text/css">
	.st0{fill:#D8D8D8;}
	.st1{fill:#FF7800;}
</style>
<path class="st0" d="M117.2,69c16.8,0,32.1,6.7,43.3,17.6c3.6,3.5,16.5,44.6,25.8,75.5c0.9,3.1,1.8,6,2.6,8.8
	c3.7,12.3-68.3,22.1-68.3,22.1c-1.1,0.1-2.3,0.1-3.4,0.1c-34.3,0-62.1-27.8-62.1-62.1S83,69,117.2,69L117.2,69z"/>
<path class="st1" d="M115.8,10.2c6.4,3.3,11.6,8.5,14.9,14.9l60.7,117.8c8.7,16.9,2.1,37.7-14.9,46.4c-4.9,2.5-10.3,3.8-15.8,3.8
	H39.3c-19,0-34.5-15.4-34.5-34.5c0-5.5,1.3-10.9,3.8-15.8L69.3,25C78.1,8.1,98.9,1.4,115.8,10.2L115.8,10.2z M84.7,32.9L24,150.7
	c-4.4,8.5-1,18.9,7.4,23.2c2.4,1.3,5.1,1.9,7.9,1.9h121.4c9.5,0,17.2-7.7,17.2-17.2c0-2.7-0.7-5.5-1.9-7.9L115.3,32.9
	c-4.4-8.5-14.8-11.8-23.2-7.4C88.9,27.1,86.3,29.7,84.7,32.9z"/>
<path class="st1" d="M101.7,72.4c4.8,0,8.6,3.9,8.6,8.6l0,0v38c0,4.8-3.9,8.6-8.6,8.6s-8.6-3.9-8.6-8.6V81
	C93.1,76.3,97,72.4,101.7,72.4L101.7,72.4z M101.7,151.7c4.8,0,8.6-3.9,8.6-8.6s-3.9-8.6-8.6-8.6l0,0c-4.8,0-8.6,3.9-8.6,8.6
	S97,151.7,101.7,151.7z"/>
</svg>
